<svg viewBox="0 0 1920 992">
  <defs>
    <style>
      .cls-1 {
        fill: red;
      }
    </style>
  </defs>
  <path id="Preenchimento_de_Cor_1" data-name="Preenchimento de Cor 1" class="cls-1" d="M1765,244c6.65,0.718,8.27,4.13,13,6,9.34,3.7,17.5,5.07,27,9,2.08,0.86,4.14,4.035,6,5,9.39,4.874,18.14,5.358,28,10,17.43,8.206,55.68,28.482,63,45,7.87,17.762,4,52.652,4,79q-0.495,37-1,74c0,22.06.89,48.276-2,65-2.37,13.731-.13,33-2,43v19c-3.98,17.706.72,40.829-5,57v44q-1.005,39.5-2,79c0,10.317-.74,43.506-6,46-5.9,3.639-18.25-.694-26,1-8.69,1.9-20.53,1.518-28,0-6.94-1.411-18,2.1-27,0h-23c-2.12-.863-1.38-3.734-6-3-14.23,2.262-36.17-5.4-56-1-11.66,2.587-49.47,4.676-62,2-2.67-.569-5.87.739-7,1-9.87,2.277-28.69.95-37-1l-26,1h-78c-21.54-2.163-53.01,0-78,0l-20,1c-3.54-.545-24.8-2.107-30-1-1.34.287-5.11,1.625-8,1-12.04-2.6-35.99-2.818-48,0-5.89,1.382-13.62-1.21-18-1-30.14,1.441-69.18,1-104,1H886c-13.317,0-30.466-1.707-42,1l-36-1c-31.184,0-54.388-1.066-84,0-65.746,2.367-137.757,4-206,4H475c-9.789,2.171-33.961,3.12-43,1-9.077-2.129-34.362-.794-42,1H369c-9.783,1.361-29.623.665-41,1-33.151.976-83.87,1-127,1H158l-9-1c-2,.588-6.773,4.234-11,5-3.969.719-15.315-.368-17,0-23.436,5.117-79.128,3.428-88-9-4.287-5.807-.179-17.341-2-26-3.09-14.694-1.67-40.406-4-55V719c-9.6-42.837,2.682-123.649-5-165-3.913-21.064,3.768-46.451-1-66V470c-1.051-11.747.151-27.073-3-40-2.223-9.117-.786-35.27,1-43,1.081-4.68-.459-12.106-1-15l1-9c0.335-19.822-1.148-34.837,7-47,5.512-8.227,13.4-9.183,21-14,7.848-4.973,21.663-13.5,33-18,3.936-1.562,7.058-.071,11-2,2.025-.991,7.725-6.529,10-8,3.678-2.379,6.036.207,11-2,6.959-3.094,14.99-8.843,22-12,12.476-5.619,34.62-8.633,41-18-7.239-10.47-5.232-23.916-12-35,0.1-1.731,1.279-6.318,0-10-1.55-4.462-5.783-7.586-8-11-4.961-7.641-2.483-13.113-7-21-1.95-3.405-6.134-6.67-8-10-4.1-7.324-4.4-13.459-8-23-2.521-6.672-6.676-11.494-7-21,7.16-7.029,8.668-11.281,24-11,5.772,4.056,22.153,3.726,30,2l37,1c6.343-1.325,16.794-3.509,26-3l1-3c6.033-10.065-1.309-27.089,11-37,16.261-13.093,92.123-9.751,114-5,6.582,1.429,15.668-.3,21,1h33c4.29,0.829,17.69,2.678,23,0,1.762,0.985,1.16,3.725,5,3,1.447-.273,5.791-3.564,7-4,5.41-1.95,8.8,2.449,17,0,2.069-.618,4.551-2.994,9-2,13.254,2.962,30.964,2.392,50-1,10.311-1.837,33.044-1.755,41,0l17-2c13.4-.431,31.1-0.967,43-4h19c15.7,0,38.228-2.2,48,0,4.65,1.048,11.57.166,15,1,11.508,2.8,35.432-1.187,43-4l21-1c14.557-3.4,32.313-3.365,44-6h20c14.307-3.526,51.978-11.494,69-4,16.454,7.244,23.5,22.408,30,40l2-1c6.237-14.844,10.021-30.194,23-38,12.015-7.226,33.62-1.783,47,0,19.48,2.6,47.76,2.936,75,3,11.87,0.028,22.68,2.485,35,0,9.29-1.874,30.37-1.725,41,1,8.3,2.129,21.5-4.746,34-2,12.36,2.715,29.07,2.361,40-1,8.43-2.593,21.49-.316,28-2h70c13.69-3.651,30.53-3.372,46-7,16.1-3.777,40.46,3.218,53,1,38.28-6.772,76.67-7.993,121-8h52c7.57,1.771,18.6,2.918,26,6,5.23,2.182,9.5,6.564,15,9,0.64,6.38,4.27,15.327,5,20,2.32,14.942-2.67,29.341,0,43h7c4.3-2.329,35.35,4.023,46,4,12.51-.027,18.11-2.588,27-6,9.16-3.516,18.17-.026,28-3,3.84-1.163,11.12-3.9,15-5,9.17-2.594,21.94,2.9,24,8,4.22,5.376-2.84,34.175-5,42-5.7,20.6-11.34,41.233-19,60q-0.495,6-1,12C1774.44,220.084,1765.67,229.6,1765,244Z"/>
</svg>
